<svg id="_2024-Logo" data-name="2024-Logo" xmlns="http://www.w3.org/2000/svg" xmlns:xlink="http://www.w3.org/1999/xlink" width="149.802" height="39.637" viewBox="0 0 149.802 39.637">
  <defs>
    <clipPath id="clip-path">
      <rect id="Rectangle_14" data-name="Rectangle 14" width="149.802" height="39.637" fill="none"/>
    </clipPath>
  </defs>
  <path id="Path_1" data-name="Path 1" d="M38.571.276V16.958H49.065V13.463H42.48V10.3h5.744V6.832H42.48V3.764h6.511L49.237.276Z" transform="translate(16.695 0.12)" fill="#fff"/>
  <rect id="Rectangle_12" data-name="Rectangle 12" width="18.644" height="5.597" transform="translate(12.034 11.634)" fill="#1c95d3"/>
  <rect id="Rectangle_13" data-name="Rectangle 13" width="18.644" height="5.597" transform="translate(12.034 22.594)" fill="#1c95d3"/>
  <path id="Path_2" data-name="Path 2" d="M5.6.483H0V39H16.857V33.4H5.6V6.08H16.857V.483Z" transform="translate(0 0.209)" fill="#1c95d3"/>
  <path id="Path_3" data-name="Path 3" d="M29.4.483H17.828v5.6H29.4V33.4H17.828V39H35V.483Z" transform="translate(7.716 0.209)" fill="#1c95d3"/>
  <g id="Group_3" data-name="Group 3">
    <g id="Group_2" data-name="Group 2" clip-path="url(#clip-path)">
      <path id="Path_4" data-name="Path 4" d="M51.646,8.735c0,3.44.742,5.2,2.847,5.2s2.87-1.762,2.87-5.2-.768-5.2-2.87-5.2-2.847,1.781-2.847,5.2m-4.111-.047C47.535,3.463,49.368,0,54.49,0s6.956,3.463,6.956,8.687v.08c0,3.637-.881,6.385-3.122,7.77l2.525,2.936-3.392,1.732-2.434-3.758a3.023,3.023,0,0,1-.522.026c-5.122,0-6.955-3.466-6.955-8.713Z" transform="translate(20.575 0.001)" fill="#fff"/>
      <path id="Path_5" data-name="Path 5" d="M63.033.258V10.417c0,2.278.469,3.417,2.475,3.417s2.474-1.139,2.474-3.417V.258h3.912V10.6c0,4.4-1.535,6.752-6.386,6.752s-6.38-2.348-6.38-6.752V.258Z" transform="translate(25.593 0.112)" fill="#fff"/>
      <path id="Path_6" data-name="Path 6" d="M76.313,4.854C75.7,6.71,75.2,8.517,74.729,10.3h3.293c-.517-1.782-.989-3.589-1.583-5.446ZM78.319.277C79.655,3.765,81.982,10.97,83.6,16.955H79.632l-.719-3.168H73.847l-.719,3.168H69.152A172.513,172.513,0,0,1,74.436.277Z" transform="translate(29.932 0.12)" fill="#fff"/>
      <path id="Path_7" data-name="Path 7" d="M84.659.277V13.463h6.582v3.495H80.747V.277Z" transform="translate(34.951 0.12)" fill="#fff"/>
      <path id="Path_8" data-name="Path 8" d="M49.237,15.744l-.246,3.492H42.481V22.3h5.743V25.77H42.481v3.168h6.585v3.488H38.572V15.744Z" transform="translate(16.696 6.815)" fill="#fff"/>
      <path id="Path_9" data-name="Path 9" d="M51.722,15.75c.719,1.467,1.781,3.522,2.672,5.077h.076c.914-1.489,2-3.614,2.7-5.077h4.4c-1.174,2.379-2.992,5.519-4.677,8.293l5.026,8.388h-4.68l-2.724-5.074h-.07l-2.773,5.074H47.068L52,24.011c-1.56-2.641-3.525-6.213-4.654-8.268Z" transform="translate(20.373 6.815)" fill="#fff"/>
      <path id="Path_10" data-name="Path 10" d="M62.809,23.47h.767c1.682,0,2.641-.2,2.641-2.176a2,2,0,0,0-.719-1.685,3.325,3.325,0,0,0-1.877-.368H62.8Zm.42-7.722a13.4,13.4,0,0,1,4.033.473c1.858.666,3.068,2.5,3.068,5.072,0,3.787-2.4,5.665-6.436,5.665H62.809v5.466h-3.9V15.748Z" transform="translate(25.497 6.817)" fill="#fff"/>
      <path id="Path_11" data-name="Path 11" d="M79.326,15.744l-.248,3.492H72.567V22.3h5.744V25.77H72.567v3.168h6.585v3.488H68.658V15.744Z" transform="translate(29.718 6.815)" fill="#fff"/>
      <path id="Path_12" data-name="Path 12" d="M81.949,23.544h.767c1.682,0,2.641-.271,2.641-2.251a2.118,2.118,0,0,0-.715-1.735,3.24,3.24,0,0,0-1.886-.37h-.814Zm.42-7.8a13.4,13.4,0,0,1,4.033.473c1.856.666,3.068,2.5,3.068,5.072a5.05,5.05,0,0,1-2.5,4.8l3.019,6.335H85.934l-2.4-5.494c-.271.023-.642.023-.989.023h-.587v5.466H78.036V15.748Z" transform="translate(33.777 6.817)" fill="#fff"/>
      <path id="Path_13" data-name="Path 13" d="M99.277,15.744l-.246,3.492H95.047V32.425H91.136V19.236H87.054V15.744Z" transform="translate(37.68 6.815)" fill="#fff"/>
      <path id="Path_14" data-name="Path 14" d="M106.807,20.023a8.552,8.552,0,0,0-3.836-.989,3.225,3.225,0,0,0-1.437.246,1.1,1.1,0,0,0-.719,1.086c0,.88.881,1.411,2.1,1.909l1.387.543c2.475.992,3.637,2.327,3.637,4.753,0,3.86-2.821,5.369-6.213,5.369A15.4,15.4,0,0,1,97.1,32.15l.173-3.764A10.756,10.756,0,0,0,101.36,29.4c1.784,0,2.475-.446,2.475-1.467,0-.963-.642-1.386-2.055-1.954l-1.386-.544c-2.006-.791-3.687-2.2-3.687-4.972s2-4.992,6.061-4.992a12.041,12.041,0,0,1,4.258.844Z" transform="translate(41.859 6.696)" fill="#fff"/>
    </g>
  </g>
  <g id="Group_80" data-name="Group 80">
    <g id="Group_2-2" data-name="Group 2" clip-path="url(#clip-path)">
      <path id="Path_4-2" data-name="Path 4" d="M51.646,8.735c0,3.44.742,5.2,2.847,5.2s2.87-1.762,2.87-5.2-.768-5.2-2.87-5.2-2.847,1.781-2.847,5.2m-4.111-.047C47.535,3.463,49.368,0,54.49,0s6.956,3.463,6.956,8.687v.08c0,3.637-.881,6.385-3.122,7.77l2.525,2.936-3.392,1.732-2.434-3.758a3.023,3.023,0,0,1-.522.026c-5.122,0-6.955-3.466-6.955-8.713Z" transform="translate(20.575 0.001)" fill="#fff"/>
      <path id="Path_5-2" data-name="Path 5" d="M63.033.258V10.417c0,2.278.469,3.417,2.475,3.417s2.474-1.139,2.474-3.417V.258h3.912V10.6c0,4.4-1.535,6.752-6.386,6.752s-6.38-2.348-6.38-6.752V.258Z" transform="translate(25.593 0.112)" fill="#fff"/>
      <path id="Path_6-2" data-name="Path 6" d="M76.313,4.854C75.7,6.71,75.2,8.517,74.729,10.3h3.293c-.517-1.782-.989-3.589-1.583-5.446ZM78.319.277C79.655,3.765,81.982,10.97,83.6,16.955H79.632l-.719-3.168H73.847l-.719,3.168H69.152A172.513,172.513,0,0,1,74.436.277Z" transform="translate(29.932 0.12)" fill="#fff"/>
      <path id="Path_7-2" data-name="Path 7" d="M84.659.277V13.463h6.582v3.495H80.747V.277Z" transform="translate(34.951 0.12)" fill="#fff"/>
      <path id="Path_8-2" data-name="Path 8" d="M49.237,15.744l-.246,3.492H42.481V22.3h5.743V25.77H42.481v3.168h6.585v3.488H38.572V15.744Z" transform="translate(16.696 6.815)" fill="#fff"/>
      <path id="Path_9-2" data-name="Path 9" d="M51.722,15.75c.719,1.467,1.781,3.522,2.672,5.077h.076c.914-1.489,2-3.614,2.7-5.077h4.4c-1.174,2.379-2.992,5.519-4.677,8.293l5.026,8.388h-4.68l-2.724-5.074h-.07l-2.773,5.074H47.068L52,24.011c-1.56-2.641-3.525-6.213-4.654-8.268Z" transform="translate(20.373 6.815)" fill="#fff"/>
      <path id="Path_10-2" data-name="Path 10" d="M62.809,23.47h.767c1.682,0,2.641-.2,2.641-2.176a2,2,0,0,0-.719-1.685,3.325,3.325,0,0,0-1.877-.368H62.8Zm.42-7.722a13.4,13.4,0,0,1,4.033.473c1.858.666,3.068,2.5,3.068,5.072,0,3.787-2.4,5.665-6.436,5.665H62.809v5.466h-3.9V15.748Z" transform="translate(25.497 6.817)" fill="#fff"/>
      <path id="Path_11-2" data-name="Path 11" d="M79.326,15.744l-.248,3.492H72.567V22.3h5.744V25.77H72.567v3.168h6.585v3.488H68.658V15.744Z" transform="translate(29.718 6.815)" fill="#fff"/>
      <path id="Path_12-2" data-name="Path 12" d="M81.949,23.544h.767c1.682,0,2.641-.271,2.641-2.251a2.118,2.118,0,0,0-.715-1.735,3.24,3.24,0,0,0-1.886-.37h-.814Zm.42-7.8a13.4,13.4,0,0,1,4.033.473c1.856.666,3.068,2.5,3.068,5.072a5.05,5.05,0,0,1-2.5,4.8l3.019,6.335H85.934l-2.4-5.494c-.271.023-.642.023-.989.023h-.587v5.466H78.036V15.748Z" transform="translate(33.777 6.817)" fill="#fff"/>
      <path id="Path_13-2" data-name="Path 13" d="M99.277,15.744l-.246,3.492H95.047V32.425H91.136V19.236H87.054V15.744Z" transform="translate(37.68 6.815)" fill="#fff"/>
      <path id="Path_14-2" data-name="Path 14" d="M106.807,20.023a8.552,8.552,0,0,0-3.836-.989,3.225,3.225,0,0,0-1.437.246,1.1,1.1,0,0,0-.719,1.086c0,.88.881,1.411,2.1,1.909l1.387.543c2.475.992,3.637,2.327,3.637,4.753,0,3.86-2.821,5.369-6.213,5.369A15.4,15.4,0,0,1,97.1,32.15l.173-3.764A10.756,10.756,0,0,0,101.36,29.4c1.784,0,2.475-.446,2.475-1.467,0-.963-.642-1.386-2.055-1.954l-1.386-.544c-2.006-.791-3.687-2.2-3.687-4.972s2-4.992,6.061-4.992a12.041,12.041,0,0,1,4.258.844Z" transform="translate(41.859 6.696)" fill="#fff"/>
    </g>
  </g>
</svg>
